<svg xmlns="http://www.w3.org/2000/svg" width="980" height="320" viewBox="0 0 980 320">
<defs><linearGradient id="g" x1="0" y1="0" x2="1" y2="1"><stop offset="0" stop-color="#3bb6ff" stop-opacity="0.35"/><stop offset="1" stop-color="#7c5cff" stop-opacity="0.25"/></linearGradient></defs>
<rect x="10" y="10" width="960" height="300" rx="22" fill="url(#g)" stroke="#203455" stroke-opacity="0.7"/>
<text x="40" y="64" fill="#e6edf7" font-size="22" font-family="Arial" font-weight="700">MERISE : Conceptuel → Logique → Physique</text>
<g font-family="Arial">
<rect x="40" y="95" width="270" height="170" rx="18" fill="#0f1b33" fill-opacity="0.85" stroke="#203455" stroke-opacity="0.85"/>
<text x="70" y="140" fill="#e6edf7" font-size="18" font-weight="700">MCD</text>
<text x="70" y="168" fill="#a9b6cc" font-size="14">Entités, associations</text>
<text x="70" y="192" fill="#a9b6cc" font-size="14">Cardinalités</text>
<text x="70" y="216" fill="#a9b6cc" font-size="14">Indépendant du SGBD</text>
<rect x="355" y="95" width="270" height="170" rx="18" fill="#0f1b33" fill-opacity="0.85" stroke="#203455" stroke-opacity="0.85"/>
<text x="385" y="140" fill="#e6edf7" font-size="18" font-weight="700">MLD</text>
<text x="385" y="168" fill="#a9b6cc" font-size="14">Tables, PK/FK</text>
<text x="385" y="192" fill="#a9b6cc" font-size="14">Tables d’association</text>
<text x="385" y="216" fill="#a9b6cc" font-size="14">Règles de passage</text>
<rect x="670" y="95" width="270" height="170" rx="18" fill="#0f1b33" fill-opacity="0.85" stroke="#203455" stroke-opacity="0.85"/>
<text x="700" y="140" fill="#e6edf7" font-size="18" font-weight="700">MPD</text>
<text x="700" y="168" fill="#a9b6cc" font-size="14">Types, index, contraintes</text>
<text x="700" y="192" fill="#a9b6cc" font-size="14">Performance & sécurité</text>
<text x="700" y="216" fill="#a9b6cc" font-size="14">Script SQL final</text>
<path d="M310 180 L355 180" stroke="#3bb6ff" stroke-width="4" stroke-linecap="round"/>
<path d="M625 180 L670 180" stroke="#7c5cff" stroke-width="4" stroke-linecap="round"/>
</g></svg>